<?xml version="1.0" encoding="UTF-8" standalone="no"?>
<svg xmlns:xlink="http://www.w3.org/1999/xlink" height="44.6px" width="491.8px" xmlns="http://www.w3.org/2000/svg">
  <g transform="matrix(1.0, 0.0, 0.0, 1.0, 0.6, -0.3)">
    <path d="M489.2 0.3 L491.2 0.3 491.2 43.0 489.2 43.0 489.2 2.05 489.2 0.3" fill="url(#gradient0)" fill-rule="evenodd" stroke="none"/>
    <path d="M1.4 44.9 L-0.6 44.9 -0.6 0.3 1.4 0.3 1.4 2.05 1.4 44.9" fill="url(#gradient1)" fill-rule="evenodd" stroke="none"/>
    <path d="M1.4 0.3 L489.2 0.3 489.2 2.05 1.4 2.05 1.4 0.3" fill="url(#gradient2)" fill-rule="evenodd" stroke="none"/>
    <path d="M491.2 43.0 L491.2 44.9 1.4 44.9 1.4 2.05 489.2 2.05 489.2 43.0 491.2 43.0" fill="url(#gradient3)" fill-rule="evenodd" stroke="none"/>
  </g>
  <defs>
    <linearGradient gradientTransform="matrix(0.0, -0.0262, -0.0256, 0.0, 510.25, 21.5)" gradientUnits="userSpaceOnUse" id="gradient0" spreadMethod="pad" x1="-819.2" x2="819.2">
      <stop offset="0.0" stop-color="#000000" stop-opacity="0.0"/>
      <stop offset="0.39215686274509803" stop-color="#000000" stop-opacity="0.4"/>
    </linearGradient>
    <linearGradient gradientTransform="matrix(0.0, -0.0273, -0.0256, 0.0, 20.45, 22.6)" gradientUnits="userSpaceOnUse" id="gradient1" spreadMethod="pad" x1="-819.2" x2="819.2">
      <stop offset="0.0" stop-color="#000000" stop-opacity="0.0"/>
      <stop offset="0.39215686274509803" stop-color="#000000" stop-opacity="0.4"/>
    </linearGradient>
    <linearGradient gradientTransform="matrix(0.0, -0.1343, -2.2736, 0.0, 1637.75, 110.25)" gradientUnits="userSpaceOnUse" id="gradient2" spreadMethod="pad" x1="-819.2" x2="819.2">
      <stop offset="0.0" stop-color="#000000" stop-opacity="0.0"/>
      <stop offset="0.39215686274509803" stop-color="#000000" stop-opacity="0.4"/>
    </linearGradient>
    <linearGradient gradientTransform="matrix(0.0, -0.029, -0.3318, 0.0, 246.25, 21.2)" gradientUnits="userSpaceOnUse" id="gradient3" spreadMethod="pad" x1="-819.2" x2="819.2">
      <stop offset="0.0" stop-color="#000000" stop-opacity="0.0"/>
      <stop offset="0.39215686274509803" stop-color="#000000"/>
    </linearGradient>
  </defs>
</svg>
