<?xml version="1.0" encoding="UTF-8" standalone="no"?>
<svg xmlns:xlink="http://www.w3.org/1999/xlink" height="27.25px" width="207.65px" xmlns="http://www.w3.org/2000/svg">
  <g transform="matrix(1.0, 0.0, 0.0, 1.0, 2.35, 1.55)">
    <path d="M0.0 -1.4 L0.35 -1.55 1.95 -1.55 201.05 -1.55 202.65 -1.55 203.0 -1.4 205.15 0.75 205.3 1.1 205.3 1.95 205.3 22.05 205.3 23.05 205.15 23.4 203.0 25.55 202.75 25.7 201.05 25.7 1.95 25.7 0.35 25.7 0.0 25.55 -2.2 23.4 -2.3 23.15 -2.35 23.1 -2.35 22.05 -2.35 1.95 -2.35 1.05 -2.3 0.95 -2.2 0.75 0.0 -1.4" fill="#a81313" fill-rule="evenodd" stroke="none"/>
  </g>
</svg>
