<?xml version="1.0" encoding="UTF-8" standalone="no"?>
<svg xmlns:xlink="http://www.w3.org/1999/xlink" height="25.0px" width="42.0px" xmlns="http://www.w3.org/2000/svg">
  <g transform="matrix(1.0, 0.0, 0.0, 1.0, 2.0, 2.0)">
    <path d="M38.0 0.0 L38.0 18.1 0.0 18.1 0.0 0.0 38.0 0.0" fill="#7d6324" fill-opacity="0.7019608" fill-rule="evenodd" stroke="none"/>
    <path d="M-2.0 22.8 L-2.0 21.95 -2.0 18.1 -2.0 -1.65 -2.0 -1.9 -2.0 -2.0 40.0 -2.0 40.0 21.95 40.0 22.8 40.0 23.0 -2.0 23.0 -2.0 22.8 40.0 22.8 -2.0 22.8 M38.0 18.0 L38.0 0.0 0.0 0.0 0.0 18.0 38.0 18.0" fill="#976f3e" fill-opacity="0.6" fill-rule="evenodd" stroke="none"/>
    <path d="M40.0 22.75 L-2.0 22.75 -2.0 22.25 -2.0 21.95 -2.0 18.35 -2.0 2.55 -2.0 2.0 -2.0 -2.0 40.0 -2.0 40.0 22.75 M39.5 22.25 L39.5 -1.5 -1.5 -1.5 -1.5 22.25 39.5 22.25" fill="#000000" fill-opacity="0.2" fill-rule="evenodd" stroke="none"/>
  </g>
</svg>
