<?xml version="1.0" encoding="UTF-8" standalone="no"?>
<svg xmlns:xlink="http://www.w3.org/1999/xlink" height="32.8px" width="32.8px" xmlns="http://www.w3.org/2000/svg">
  <g transform="matrix(1.0, 0.0, 0.0, 1.0, 0.0, 0.0)">
    <path d="M18.55 5.75 L18.55 6.65 19.0 6.65 19.0 7.7 19.1 8.25 Q19.1 8.8 18.65 9.0 L17.6 9.1 17.25 9.05 17.25 9.4 Q19.35 9.95 20.8 11.8 22.2 13.65 22.35 16.15 23.2 16.35 23.7 17.1 24.25 17.85 24.25 18.85 24.25 19.75 23.8 20.45 L22.6 21.45 22.6 22.45 Q23.2 22.7 23.2 23.35 L22.9 24.05 22.25 24.3 Q21.3 24.3 21.3 23.35 21.3 22.85 21.7 22.55 L21.7 21.55 20.9 21.35 20.35 22.0 Q20.05 23.95 18.7 25.2 L18.45 25.55 18.1 26.45 Q17.7 26.85 17.15 26.85 L14.85 26.85 Q14.35 26.85 13.95 26.45 13.55 26.1 13.55 25.55 L13.4 25.35 Q12.0 24.25 11.6 22.3 L10.95 21.55 Q10.1 21.3 9.55 20.6 9.0 19.8 9.0 18.85 9.0 18.05 9.4 17.4 L9.35 16.65 Q9.35 14.15 10.65 12.2 11.9 10.25 13.9 9.55 L13.9 8.45 15.45 8.45 15.45 8.0 16.15 8.0 16.1 7.6 16.2 7.4 16.4 7.3 16.4 6.65 17.05 6.65 17.05 5.75 18.55 5.75 M19.2 17.7 L12.7 17.7 Q12.15 17.7 11.8 18.05 11.4 18.45 11.4 19.0 L11.4 20.2 Q11.4 20.75 11.8 21.1 12.2 21.5 12.7 21.5 L14.9 21.5 14.9 21.3 Q14.9 20.9 15.15 20.6 15.45 20.3 15.85 20.3 16.25 20.3 16.55 20.6 L16.85 21.3 16.8 21.5 19.2 21.5 Q19.75 21.5 20.15 21.1 20.55 20.75 20.55 20.2 L20.55 19.0 Q20.55 18.45 20.15 18.05 19.75 17.7 19.2 17.7 M25.9 6.9 Q22.0 2.95 16.4 2.95 10.8 2.95 6.9 6.9 2.95 10.8 2.95 16.4 2.95 21.95 6.9 25.9 10.8 29.85 16.4 29.85 22.0 29.85 25.9 25.9 29.85 21.95 29.85 16.4 29.85 10.8 25.9 6.9 M32.8 16.4 Q32.8 23.2 28.0 28.0 23.2 32.8 16.4 32.8 9.6 32.8 4.8 28.0 0.0 23.2 0.0 16.4 0.0 9.6 4.8 4.8 9.6 0.0 16.4 0.0 23.2 0.0 28.0 4.8 32.8 9.6 32.8 16.4" fill="#6e7d5c" fill-rule="evenodd" stroke="none"/>
  </g>
</svg>
